<?xml version="1.0" encoding="UTF-8"?>
<svg version="1.1" xmlns="http://www.w3.org/2000/svg" width="64" height="64">
<path d="M0 0 C2.46545979 0.56120388 3.3622689 1.37480533 5.0078125 3.26953125 C7.0078125 6.45703125 7.0078125 6.45703125 7.0078125 9.45703125 C8.0803125 9.51890625 9.1528125 9.58078125 10.2578125 9.64453125 C14.0078125 10.45703125 14.0078125 10.45703125 16.3828125 12.58203125 C18.26991651 15.92075372 18.51864234 18.68343285 19.0078125 22.45703125 C19.50410156 22.93011719 20.00039063 23.40320313 20.51171875 23.890625 C22.47305624 25.94414023 22.41113272 27.09554943 22.3828125 29.89453125 C22.25592459 33.84708972 21.50316388 35.38582955 19.0078125 38.45703125 C18.67396635 39.94821071 18.38720221 41.45026142 18.1328125 42.95703125 C17.45642213 46.35016308 17.10526422 47.34904421 14.6953125 50.01953125 C11.81821579 51.55844344 10.2161657 51.82370019 7.0078125 51.45703125 C6.9459375 52.19953125 6.8840625 52.94203125 6.8203125 53.70703125 C5.71974122 57.43204174 4.33564366 58.50373905 1.0078125 60.45703125 C-3.41887167 60.9149641 -5.2548019 60.94862165 -8.9921875 58.45703125 C-9.28515625 55.63671875 -9.28515625 55.63671875 -9.1796875 52.33203125 C-9.15261719 51.23632812 -9.12554687 50.140625 -9.09765625 49.01171875 C-9.06285156 48.16867188 -9.02804688 47.325625 -8.9921875 46.45703125 C-5.78874169 46.41453114 -3.07408406 46.54387671 0.0078125 47.45703125 C0.3378125 46.13703125 0.6678125 44.81703125 1.0078125 43.45703125 C-0.6421875 43.45703125 -2.2921875 43.45703125 -3.9921875 43.45703125 C-3.9921875 44.11703125 -3.9921875 44.77703125 -3.9921875 45.45703125 C-5.6421875 45.12703125 -7.2921875 44.79703125 -8.9921875 44.45703125 C-8.9921875 35.21703125 -8.9921875 25.97703125 -8.9921875 16.45703125 C-3.3671875 15.33203125 -3.3671875 15.33203125 0.0078125 16.45703125 C0.0078125 15.46703125 0.0078125 14.47703125 0.0078125 13.45703125 C-4.4471875 13.95203125 -4.4471875 13.95203125 -8.9921875 14.45703125 C-9.07300844 12.49936844 -9.13129528 10.54076397 -9.1796875 8.58203125 C-9.21449219 7.49148437 -9.24929687 6.4009375 -9.28515625 5.27734375 C-9.18847656 4.34664063 -9.09179688 3.4159375 -8.9921875 2.45703125 C-5.81381329 0.33811511 -3.79540095 -0.07702843 0 0 Z M-2.9921875 22.45703125 C-4.68888228 28.21274199 -5.85602156 32.84391649 -2.9921875 38.45703125 C1.30335536 40.40218273 4.4905853 40.82588798 9.0078125 39.45703125 C8.6778125 38.13703125 8.3478125 36.81703125 8.0078125 35.45703125 C3.5528125 35.95203125 3.5528125 35.95203125 -0.9921875 36.45703125 C-1.3221875 32.16703125 -1.6521875 27.87703125 -1.9921875 23.45703125 C-0.5484375 23.80765625 0.8953125 24.15828125 2.3828125 24.51953125 C5.79066528 25.48922551 5.79066528 25.48922551 9.0078125 24.45703125 C8.6778125 23.13703125 8.3478125 21.81703125 8.0078125 20.45703125 C3.92403173 20.45703125 0.88465337 21.26415714 -2.9921875 22.45703125 Z " fill="#35B9B5" transform="translate(41.9921875,1.54296875)"/>
<path d="M0 0 C0.99 0.66 1.98 1.32 3 2 C3.29296875 4.8203125 3.29296875 4.8203125 3.1875 8.125 C3.16042969 9.22070312 3.13335938 10.31640625 3.10546875 11.4453125 C3.07066406 12.28835938 3.03585938 13.13140625 3 14 C-0.20344581 14.04250011 -2.91810344 13.91315454 -6 13 C-6 13.99 -6 14.98 -6 16 C-4.0509375 15.7215625 -4.0509375 15.7215625 -2.0625 15.4375 C0.15234375 15.12109375 0.15234375 15.12109375 2 15 C3 16 3 16 3.11352539 18.68383789 C3.10828857 19.85164795 3.10305176 21.01945801 3.09765625 22.22265625 C3.09443359 23.48271484 3.09121094 24.74277344 3.08789062 26.04101562 C3.07953403 27.38151109 3.07106907 28.72200588 3.0625 30.0625 C3.0574866 31.40689942 3.05292342 32.7513006 3.04882812 34.09570312 C3.03699488 37.39717941 3.02050971 40.69856803 3 44 C0.525 44.495 0.525 44.495 -2 45 C-2 44.34 -2 43.68 -2 43 C-3.65 43 -5.3 43 -7 43 C-6.67 44.32 -6.34 45.64 -6 47 C-1.545 46.505 -1.545 46.505 3 46 C3.08082094 47.95766281 3.13910778 49.91626728 3.1875 51.875 C3.23970703 53.51082031 3.23970703 53.51082031 3.29296875 55.1796875 C3.19628906 56.11039063 3.09960938 57.04109375 3 58 C-0.7373856 60.4915904 -2.57331583 60.45793285 -7 60 C-10.32783116 58.0467078 -11.71192872 56.97501049 -12.8125 53.25 C-12.874375 52.5075 -12.93625 51.765 -13 51 C-14.0725 50.938125 -15.145 50.87625 -16.25 50.8125 C-20 50 -20 50 -22.375 47.875 C-24.26674647 44.52806393 -24.51803449 41.78687188 -25 38 C-25.515625 37.38125 -26.03125 36.7625 -26.5625 36.125 C-28.82550868 32.77968282 -28.73595398 28.91787268 -28 25 C-27.01058113 23.98952966 -26.01025559 22.98963813 -25 22 C-24.39675888 19.86380448 -24.39675888 19.86380448 -24.125 17.5625 C-23.45164595 14.14564558 -23.110167 13.12207694 -20.6875 10.4375 C-17.81040329 8.89858781 -16.2083532 8.63333106 -13 9 C-12.9175 8.2575 -12.835 7.515 -12.75 6.75 C-10.80490189 -0.3820264 -6.5204298 -0.62099331 0 0 Z M-14 20 C-14.33 21.32 -14.66 22.64 -15 24 C-10.23488376 25.40150478 -9.27770614 24.75923538 -4 23 C-4.33 27.29 -4.66 31.58 -5 36 C-7.97 35.67 -10.94 35.34 -14 35 C-14.33 36.32 -14.66 37.64 -15 39 C-10.48281619 40.36884358 -7.41225737 39.47075246 -3 38 C-1.30330522 32.24428926 -0.13616594 27.61311476 -3 22 C-6.91604838 20.33205347 -9.74530677 20 -14 20 Z " fill="#C5C5C5" transform="translate(28,2)"/>
<path d="M0 0 C0 9.24 0 18.48 0 28 C-1.65 28.33 -3.3 28.66 -5 29 C-5 28.34 -5 27.68 -5 27 C-6.65 27 -8.3 27 -10 27 C-10 26.67 -10 26.34 -10 26 C-7.03 26.33 -4.06 26.66 -1 27 C-1 23.37 -1 19.74 -1 16 C-1.99 16 -2.98 16 -4 16 C-4 17.98 -4 19.96 -4 22 C-4.66 22 -5.32 22 -6 22 C-5.91621094 21.43152344 -5.83242188 20.86304687 -5.74609375 20.27734375 C-5.08089803 15.23364455 -5.0431163 10.99705931 -6 6 C-7.98 6 -9.96 6 -12 6 C-12.33 5.34 -12.66 4.68 -13 4 C-11.68 3.67 -10.36 3.34 -9 3 C-9 2.01 -9 1.02 -9 0 C-5.32211882 -1.22596039 -4.21550387 -0.84310077 0 0 Z " fill="#ACACAC" transform="translate(31,18)"/>
<path d="M0 0 C3.40667322 0.44824648 5.07914607 1.05276405 8 3 C5.36 2.67 2.72 2.34 0 2 C0 5.63 0 9.26 0 13 C0.99 13 1.98 13 3 13 C3 11.02 3 9.04 3 7 C3.66 7 4.32 7 5 7 C4.87431641 7.85271484 4.87431641 7.85271484 4.74609375 8.72265625 C4.08089803 13.76635545 4.0431163 18.00294069 5 23 C6.98 23 8.96 23 11 23 C11 23.33 11 23.66 11 24 C8.66705225 24.04241723 6.33297433 24.04092937 4 24 C3 23 3 23 2.9375 19.9375 C2.958125 18.968125 2.97875 17.99875 3 17 C2.01 17 1.02 17 0 17 C0 20.63 0 24.26 0 28 C1.32 28 2.64 28 4 28 C4 28.66 4 29.32 4 30 C2.35 29.67 0.7 29.34 -1 29 C-1.02465881 25.03069011 -1.04284023 21.06140966 -1.05493164 17.09204102 C-1.05997057 15.74079614 -1.06680177 14.38955674 -1.07543945 13.03833008 C-1.08752419 11.09979566 -1.09269828 9.161222 -1.09765625 7.22265625 C-1.10289307 6.05484619 -1.10812988 4.88703613 -1.11352539 3.68383789 C-1 1 -1 1 0 0 Z " fill="#367B79" transform="translate(34,17)"/>
<path d="M0 0 C0.66 0.33 1.32 0.66 2 1 C2 2.65 2 4.3 2 6 C2.99 6 3.98 6 5 6 C6.14077657 9.42232972 6.09815117 12.08673217 6.0625 15.6875 C6.05347656 16.86699219 6.04445313 18.04648437 6.03515625 19.26171875 C6.02355469 20.16535156 6.01195312 21.06898437 6 22 C4.35 22.33 2.7 22.66 1 23 C1 22.34 1 21.68 1 21 C-0.65 21 -2.3 21 -4 21 C-4 20.67 -4 20.34 -4 20 C-1.03 20.33 1.94 20.66 5 21 C5 17.37 5 13.74 5 10 C4.01 10 3.02 10 2 10 C2 11.98 2 13.96 2 16 C1.34 16 0.68 16 0 16 C0.08378906 15.43152344 0.16757812 14.86304688 0.25390625 14.27734375 C0.91910197 9.23364455 0.9568837 4.99705931 0 0 Z " fill="#7A7A7A" transform="translate(25,24)"/>
<path d="M0 0 C3.3 0.33 6.6 0.66 10 1 C10.309375 2.134375 10.61875 3.26875 10.9375 4.4375 C11.62924531 7.78775099 11.62924531 7.78775099 13 9 C14.68183948 9.23287008 16.3712416 9.41264166 18.0625 9.5625 C18.98160156 9.64628906 19.90070312 9.73007812 20.84765625 9.81640625 C21.55792969 9.87699219 22.26820312 9.93757813 23 10 C21 12 21 12 17.6875 12.375 C13.40568815 11.93956151 11.88924635 11.14417985 9 8 C8.1875 5.25 8.1875 5.25 8 3 C6.865625 2.87625 5.73125 2.7525 4.5625 2.625 C3.386875 2.41875 2.21125 2.2125 1 2 C0.67 1.34 0.34 0.68 0 0 Z " fill="#7C7C7C" transform="translate(7,50)"/>
<path d="M0 0 C0.99 0 1.98 0 3 0 C3.2475 1.11375 3.495 2.2275 3.75 3.375 C4.61005339 7.04615198 4.61005339 7.04615198 7.125 8.4375 C7.74375 8.623125 8.3625 8.80875 9 9 C5.62902617 10.49821059 3.79557881 11 0 11 C0 7.37 0 3.74 0 0 Z " fill="#35CFCA" transform="translate(34,34)"/>
<path d="M0 0 C0.99 0 1.98 0 3 0 C3 3.63 3 7.26 3 11 C-1.455 10.01 -1.455 10.01 -6 9 C-4.68 8.67 -3.36 8.34 -2 8 C-2 7.34 -2 6.68 -2 6 C-1.34 6 -0.68 6 0 6 C0 4.02 0 2.04 0 0 Z " fill="#D6D6D5" transform="translate(27,34)"/>
<path d="M0 0 C5 1 5 1 8 3 C7.01 3 6.02 3 5 3 C5 3.66 5 4.32 5 5 C4.34 5 3.68 5 3 5 C3 6.98 3 8.96 3 11 C2.01 11 1.02 11 0 11 C0 7.37 0 3.74 0 0 Z " fill="#35CEC9" transform="translate(34,19)"/>
<path d="M0 0 C0 0.33 0 0.66 0 1 C-1.11375 1.103125 -2.2275 1.20625 -3.375 1.3125 C-4.57125 1.539375 -5.7675 1.76625 -7 2 C-7.99 3.485 -7.99 3.485 -9 5 C-9.66 5 -10.32 5 -11 5 C-11 6.98 -11 8.96 -11 11 C-14.3 11.33 -17.6 11.66 -21 12 C-18 9 -18 9 -15.3125 8.8125 C-14.549375 8.874375 -13.78625 8.93625 -13 9 C-12.9175 8.2575 -12.835 7.515 -12.75 6.75 C-10.78913311 -0.43984526 -6.5222258 -0.43481505 0 0 Z " fill="#848484" transform="translate(28,2)"/>
<path d="M0 0 C1.5 1.3125 1.5 1.3125 3 3 C3 3.99 3 4.98 3 6 C4.134375 6.12375 5.26875 6.2475 6.4375 6.375 C7.613125 6.58125 8.78875 6.7875 10 7 C10.33 7.66 10.66 8.32 11 9 C7.7 8.67 4.4 8.34 1 8 C0.67 5.36 0.34 2.72 0 0 Z " fill="#35817F" transform="translate(46,5)"/>
<path d="M0 0 C0.99 0.495 0.99 0.495 2 1 C2 2.65 2 4.3 2 6 C2.99 6 3.98 6 5 6 C5 6.99 5 7.98 5 9 C4.01 9 3.02 9 2 9 C0.14223235 5.86501708 -0.20140476 3.62528568 0 0 Z " fill="#575757" transform="translate(25,24)"/>
<path d="M0 0 C0.66 0 1.32 0 2 0 C1.125 6.75 1.125 6.75 0 9 C-0.99 9 -1.98 9 -3 9 C-2.67 8.01 -2.34 7.02 -2 6 C-1.34 6 -0.68 6 0 6 C0 4.02 0 2.04 0 0 Z " fill="#385655" transform="translate(37,24)"/>
</svg>
